<svg version="1.2" xmlns="http://www.w3.org/2000/svg" viewBox="0 0 234 93" width="234" height="93">
	<title>ucsd-svg</title>
	<style>
		.s0 { fill: #182b49 } 
		.s1 { fill: #c69214 } 
	</style>
	<path id="Layer" fill-rule="evenodd" class="s0" d="m69.7 31.1l0.3 6.1h-1c-0.5-2.2-2-5.7-6.8-5.7-6.3 0-6.8 6.7-6.8 10.7 0 5 1.1 12.7 9.6 12.7 2.6 0 4-0.6 5-1v1.7c-1.9 0.7-4.1 1-7 1-7.7 0-11.4-5.9-11.4-14.1 0-7.2 2.3-12.5 10.6-12.5 3.1 0 5.7 0.6 7.5 1.1zm21.9-0.4l0.2 5.3h-0.9c-0.4-2.1-1.9-4.5-6.1-4.5-2.6 0-4.9 1.7-4.9 4.2 0 3.5 4.6 4.6 8 6.6 3.1 1.8 5.1 3.4 5.1 7.1 0 4.9-4.2 7.2-9.6 7.2-2.6 0-5.7-0.5-6.6-0.7l-0.3-5.5h1c0.3 2.1 2.1 4.5 6.3 4.5 3.4 0 5.6-2.2 5.6-4.9 0-4.2-6.5-5.5-10.1-8.2-1.7-1.4-2.5-2.7-2.5-5.2 0-4.7 3.9-6.6 8.7-6.6 2.6 0 4.3 0.3 6.1 0.7zm-54.4-0.3v0.8c-2.1 0-3.4 0.2-3.4 3.1v13c0 3.9 1 7.8 6 7.8 5.6 0 6.5-3.2 6.5-7.8v-13c0-2.9-1.3-3.1-3.4-3.1v-0.8h9v0.8c-2.1 0-3.4 0.2-3.4 3.1v13c0 5.3-0.8 9.3-8.8 9.3-8.1 0-9.3-3.8-9.3-9.3v-13c0-2.9-1.3-3.1-3.4-3.1v-0.8c0 0 10.2 0 10.2 0zm103 0c6.5 0 13.3 1.4 13.3 13 0 11.5-7.2 12.9-13.3 12.9h-9.1v-0.8c2.1 0 3.4-0.3 3.4-3.2v-18c0-2.9-1.3-3.1-3.4-3.1v-0.8c0 0 9.1 0 9.1 0zm-2.3 4.8v16.3c0 2.8 0.4 3.2 2.3 3.2 6.7 0 9.4-3.5 9.4-11.3 0-7.2-2-11.5-9.4-11.5-1.9 0-2.3 0.2-2.3 3.3zm22.8-0.3c0 1.1-0.8 1.9-1.9 1.9-1.1 0-2-0.8-2-1.9 0-1.1 0.9-2 2-2 1.1 0 1.9 0.9 1.9 2zm32.4 3.9c0 1-0.6 1.6-1.6 1.6-0.9 0-1.2-0.5-1.6-0.5-0.8 0-1.1 1-1.2 1.6 0.4 0.4 1.5 1.7 1.5 4.1 0 3.5-2.2 5.5-6.3 5.5-1.4 0-2.4-0.2-3.1-0.5-0.3 0.2-0.7 0.7-0.7 1.5 0 1.4 1.8 1.4 2.9 1.4h4c1.7 0 5.5 0.1 5.5 3.9 0 3.9-3.8 6.1-8.4 6.1-3.4 0-6.9-1.2-6.9-4.3 0-2.2 1.5-3.1 2.7-3.7-0.6-0.3-1.5-1-1.5-2.4 0-1.3 1.1-2.6 1.5-3-0.8-0.7-2-1.7-2-4.7 0-4.4 3.2-5.4 6.5-5.4 1.6 0 2.4 0.3 3.5 0.9 0.6-1.3 1.4-3.7 3.5-3.7 1 0 1.7 0.6 1.7 1.6zm-86.6 6.7v8.6c0 1.2 0.4 1.6 1.5 1.6 0.3 0 0.6-0.1 0.9-0.1v0.7c-0.4 0.1-1.3 0.3-2.5 0.3-2 0-2.6-1-2.6-2.5h-0.1c-1 1.5-2.5 2.5-4.9 2.5-2.4 0-4.1-1.7-4.1-3.9 0-5 6.5-5 9.1-5.3v-1.3c0-2.4 0-4.9-2.9-4.9-2.2 0-2.5 0.9-2.5 2 0 1.4-1 1.8-1.6 1.8-0.9 0-1.6-0.7-1.6-1.6 0-2.2 3.3-3.4 5.7-3.4 4.7 0 5.6 2.3 5.6 5.5zm8.5-0.9h0.1c0.5-1.3 2-4.6 5.4-4.6 3.7 0 4 2 4 5.2v7.9c0 2.3 1.2 2.6 2.7 2.6v0.6h-8v-0.6c1.5 0 2.6-0.3 2.6-2.6v-7.1c0-3 0-4.3-2.3-4.3-2 0-4.5 3.9-4.5 7.2v4.2c0 2.3 1.2 2.6 2.6 2.6v0.6h-7.9v-0.6c1.4 0 2.6-0.3 2.6-2.6v-9.4c0-2.1-1.6-2.2-2.6-2.3v-0.6l5.3-0.8zm45.2 8.6c0 2.2 1.2 2.5 2.6 2.5v0.6h-7.9v-0.6c1.4 0 2.6-0.3 2.6-2.5v-9.5c0-2.1-1.6-2.2-2.6-2.2v-0.6l5.3-0.8zm15.6-7.4v0.8h-10c0 2.9 1.4 8.8 7.1 8.8 0.8 0 1.8-0.1 2.5-0.5v1.1c-0.9 0.3-2 0.6-4.2 0.6-5.3 0-8.3-2.9-8.3-8.7 0-5 2-7.8 7-7.8 3.1 0 5.9 1.7 5.9 5.7zm31.2 2.6c0 5.1-2.8 8.2-7.2 8.2-4.4 0-7.2-3.1-7.2-8.2 0-5.2 2.8-8.3 7.2-8.3 4.4 0 7.2 3.1 7.2 8.3zm-41.3-3h7c0-1.8-0.6-4.2-3.3-4.2-2.6 0-3.6 2.9-3.6 4.2zm14.9-0.2c0 2.6 0.9 4.8 3.4 4.8 2.9 0 3.2-2.3 3.2-4.1 0-2.6-0.9-4.7-3.3-4.7-2.8 0-3.3 2-3.3 4zm14.9 3.2c0 2.8 0.7 7.1 4.2 7.1 3.4 0 4.1-4.3 4.1-7.1 0-2.9-0.7-7.2-4.1-7.2-3.5 0-4.2 4.3-4.2 7.2zm-97.8 3.8c0 1.8 1.1 3 2.3 3 2.3 0 3.7-2.2 3.7-4.5v-2.1c-1.6 0.1-6 0.4-6 3.6zm81.6 6.5c0 2 1.8 3.8 4.8 3.8 3.2 0 6.1-1.7 6.1-4.2 0-1.7-1.5-2.3-3.2-2.3h-6c-0.7 0.5-1.7 1.1-1.7 2.7z"/>
	<path id="Layer" class="s1" d="m27 62.2v0.9h149.2q-0.5-0.4-0.8-0.9zm166.1 0q-0.5 0.5-1.1 0.9h14.7v-0.9z"/>
</svg>